<svg xmlns="http://www.w3.org/2000/svg" id="Capa_1" data-name="Capa 1" viewBox="0 0 512 415.35"><title>isotipo negro refectorium</title><path d="M504.09,372.16q-4.47,11.41-35.25,20.85-26.32,8-42.7,7.95-57.6,0-124.12-48.17Q263.77,325,197.25,258q-56.12-56.61-74.47-64.55H79.09V294.21q0,26.32,32.27,29.29l5.46.5.5,6.45-7-.5-38.72-2.48H52.77l-45.68,3,.5-6.45,5.46-.5q16.88-1.49,24.58-7.44t7.69-21.85V52.91q0-26.31-32.27-29.29l-5.46-.5-.5-6.46,7,.5q34.76,2.49,38.73,2.49,12.9,0,38.72-1.25t38.73-1.24q42.19,0,72,17.38Q238.94,55.39,239,94.62a85.63,85.63,0,0,1-21.35,57.59q-19.35,22.85-52.12,34.26,11.91,8,56.1,53.12Q271.23,290.25,304.5,318q54.09,45.16,98.3,60.57A120.59,120.59,0,0,0,443,385.07a147.73,147.73,0,0,0,61.08-12.91M206.19,106q0-36.73-27.31-58.09Q154,28.59,116.32,28.58q-22.84,0-27.3,2Q79.08,35,79.09,52.91V181.5h72Q206.2,158.17,206.19,106"></path></svg>